<?xml version="1.0" encoding="UTF-8"?>
<!DOCTYPE svg PUBLIC "-//W3C//DTD SVG 1.1//EN" "http://www.w3.org/Graphics/SVG/1.1/DTD/svg11.dtd">
<!-- Creator: CorelDRAW -->
<svg xmlns="http://www.w3.org/2000/svg" xml:space="preserve" version="1.1" style="shape-rendering:geometricPrecision; text-rendering:geometricPrecision; image-rendering:optimizeQuality; fill-rule:evenodd; clip-rule:evenodd"
viewBox="5500 2800 18600 13400"
 xmlns:xlink="http://www.w3.org/1999/xlink"
 xmlns:xodm="http://www.corel.com/coreldraw/odm/2003">
 <defs>
  <style type="text/css">
   <![CDATA[
    .fil3 {fill:#00AFEF}
    .fil0 {fill:#01FBFF}
    .fil1 {fill:#4814E6}
    .fil4 {fill:#9400FE}
    .fil2 {fill:#E800FF}
   ]]>
  </style>
 </defs>
 <g id="Camada_x0020_1">
  <metadata id="CorelCorpID_0Corel-Layer"/>
  <path class="fil0" d="M5946.2 14278.06l1277.73 -91.46c5184.42,497.87 9989.46,-654.63 11522.39,-6239.86l4932.96 -0.02c-0.74,5794.63 -5672,8374.58 -9773.48,8778.64 -2620.28,258.14 -5413.95,-331.72 -7959.58,-966.4l-0.02 -1480.9z"/>
  <path class="fil1" d="M6061.2 13822.11l-71.65 -161.03 337.49 -274.13c2610.66,-2167.37 4625.49,-6907.01 2748.15,-10180.06l3693.64 92.79c1541.26,4801.45 -2690.04,9648.21 -5871.9,10920.99l-835.73 -398.56z"/>
  <path class="fil1" d="M5946.28 14050.6l1277.65 136c5101.53,489.89 9911.12,-874.1 11522.39,-6239.86l3742.69 31.61c-754.99,5456.9 -5076.75,7697.31 -9136.11,8097.23 -2620.28,258.13 -4861.05,318.06 -7406.68,-316.62l0.06 -1708.36z"/>
  <path class="fil2" d="M5946.3 13651.56c2953.53,-2317.95 4992.92,-6742.1 2865.37,-10451.32l1602.51 40.25c2263.35,2880.18 1221.24,6067.95 -475.35,8149.01 -702.58,861.86 -1575.55,1726.71 -2508.19,2456.39 -506.04,395.88 -970.01,698.25 -1484.36,1009.53l0.02 -1203.86z"/>
  <path class="fil3" d="M5946.22 15758.96c6057.51,1421.47 12357.69,-1156.42 12800.1,-7812.22l4131.95 3.79c-108.74,5679.81 -5711.24,8355.28 -9773.06,8755.44 -3160.94,137.45 -4512.99,-287.24 -7158.99,-947.01l0 0z"/>
  <path class="fil4" d="M7838.53 13497.19c2256.39,-2083.12 4111.29,-6429.56 973.14,-10296.95l2626.63 65.99c2575.65,6273.39 -3611.89,10386.4 -4433.31,10897.08l-2.95 -0.32c182.67,-150.44 778.92,-612.65 836.49,-665.8z"/>
 </g>
</svg>
